<svg width="64" height="64" viewBox="0 0 64 64" fill="none" xmlns="http://www.w3.org/2000/svg">
<path d="M60 27.9999C59.6959 27.8244 59.3511 27.7319 59 27.7319C58.6489 27.7319 58.304 27.8244 58 27.9999L32 42.6999L5.99999 27.9999C5.69536 27.824 5.34974 27.7316 4.99799 27.7319C4.64624 27.7323 4.30081 27.8254 3.99653 28.0019C3.69226 28.1784 3.43991 28.432 3.26494 28.7371C3.08998 29.0423 2.99859 29.3881 2.99999 29.7399V46.9999C2.99999 48.5912 3.63213 50.1173 4.75734 51.2425C5.88256 52.3678 7.40869 52.9999 8.99999 52.9999H55C56.5913 52.9999 58.1174 52.3678 59.2426 51.2425C60.3678 50.1173 61 48.5912 61 46.9999V29.7499C61.0032 29.3958 60.9122 29.0472 60.7365 28.7397C60.5609 28.4322 60.3067 28.1769 60 27.9999Z" fill="#2962FF"/>
<path d="M55 11H8.99999C7.40869 11 5.88256 11.6321 4.75734 12.7574C3.63213 13.8826 2.99999 15.4087 2.99999 17V20.75C2.99859 21.1024 3.09034 21.449 3.26594 21.7545C3.44155 22.0601 3.69478 22.3138 3.99999 22.49L31 37.74C31.304 37.9155 31.6489 38.0079 32 38.0079C32.3511 38.0079 32.6959 37.9155 33 37.74L60 22.49C60.3052 22.3138 60.5584 22.0601 60.734 21.7545C60.9096 21.449 61.0014 21.1024 61 20.75V17C61 15.4087 60.3678 13.8826 59.2426 12.7574C58.1174 11.6321 56.5913 11 55 11Z" fill="#2962FF"/>
</svg>
