<svg width="64" height="71" viewBox="0 0 64 71" fill="none" xmlns="http://www.w3.org/2000/svg">
<g clip-path="url(#clip0_14_77)">
<path d="M21.3333 70.5925C27.2213 70.5925 32 65.3216 32 58.8271V47.0616H21.3333C15.4453 47.0616 10.6667 52.3326 10.6667 58.8271C10.6667 65.3216 15.4453 70.5925 21.3333 70.5925Z" fill="#0ACF83"/>
<path d="M10.6667 35.2963C10.6667 28.8018 15.4453 23.5309 21.3333 23.5309H32V47.0617H21.3333C15.4453 47.0617 10.6667 41.7908 10.6667 35.2963Z" fill="#A259FF"/>
<path d="M10.6667 11.7654C10.6667 5.27091 15.4453 0 21.3333 0H32V23.5308H21.3333C15.4453 23.5308 10.6667 18.2599 10.6667 11.7654Z" fill="#F24E1E"/>
<path d="M32 0H42.6667C48.5547 0 53.3333 5.27091 53.3333 11.7654C53.3333 18.2599 48.5547 23.5308 42.6667 23.5308H32V0Z" fill="#FF7262"/>
<path d="M53.3333 35.2963C53.3333 41.7908 48.5547 47.0617 42.6667 47.0617C36.7787 47.0617 32 41.7908 32 35.2963C32 28.8018 36.7787 23.5309 42.6667 23.5309C48.5547 23.5309 53.3333 28.8018 53.3333 35.2963Z" fill="#1ABCFE"/>
</g>
<defs>
<clipPath id="clip0_14_77">
<rect width="64" height="70.5925" fill="white"/>
</clipPath>
</defs>
</svg>
