<svg width="64" height="64" viewBox="0 0 64 64" fill="none" xmlns="http://www.w3.org/2000/svg">
<g clip-path="url(#clip0_16_111)">
<path d="M31.996 0C14.328 0 1.84659e-05 14.384 1.84659e-05 32.128C-0.00720001 38.8622 2.10208 45.4284 6.02974 50.8985C9.95741 56.3687 15.5048 60.4662 21.888 62.612C23.488 62.908 24.072 61.916 24.072 61.064C24.072 60.3 24.044 58.28 24.028 55.6C15.128 57.54 13.248 51.292 13.248 51.292C11.796 47.58 9.69602 46.592 9.69602 46.592C6.78802 44.6 9.91202 44.64 9.91202 44.64C13.124 44.868 14.812 47.952 14.812 47.952C17.668 52.86 22.304 51.444 24.128 50.62C24.416 48.544 25.244 47.128 26.16 46.324C19.056 45.512 11.584 42.756 11.584 30.448C11.584 26.94 12.832 24.072 14.88 21.824C14.548 21.012 13.452 17.744 15.192 13.324C15.192 13.324 17.88 12.46 23.992 16.616C26.603 15.9024 29.2973 15.5393 32.004 15.536C34.7109 15.5414 37.4051 15.9059 40.016 16.62C46.124 12.464 48.808 13.328 48.808 13.328C50.552 17.752 49.456 21.016 49.128 21.828C51.18 24.076 52.416 26.944 52.416 30.452C52.416 42.792 44.936 45.508 37.808 46.304C38.956 47.296 39.98 49.256 39.98 52.252C39.98 56.548 39.94 60.012 39.94 61.064C39.94 61.924 40.516 62.924 42.14 62.608C48.517 60.4571 54.0575 56.3581 57.9797 50.8892C61.9019 45.4204 64.0078 38.8579 64 32.128C64 14.384 49.672 0 31.996 0Z" fill="#5C6BC0"/>
</g>
<defs>
<clipPath id="clip0_16_111">
<rect width="64" height="64" fill="white"/>
</clipPath>
</defs>
</svg>
