<svg width="64" height="64" viewBox="0 0 64 64" fill="none" xmlns="http://www.w3.org/2000/svg">
<path d="M8.875 57.5L3.75 0H60.125L55 57.5L31.875 64" fill="#E34F26"/>
<path d="M32 59L50.625 53.875L55 4.625H32" fill="#EF652A"/>
<path d="M32 26H22.625L22 18.75H32V11.75H14.25L16.125 33.125H32V26ZM31.875 44.375L24 42.25L23.5 36.625H16.5L17.375 47.75L31.875 51.75V44.375Z" fill="#EBEBEB"/>
<path d="M31.875 26V33.125H40.625L39.75 42.25L31.875 44.375V51.75L46.375 47.75L48.375 26H31.875ZM31.875 11.75V18.75H49L49.625 11.75H31.875Z" fill="white"/>
</svg>
