<svg width="64" height="59" viewBox="0 0 64 59" fill="none" xmlns="http://www.w3.org/2000/svg">
<path d="M0 0H64V59H0V0Z" fill="#F7DF1E"/>
<path d="M16.828 49.3047L21.7255 46.5722C22.6705 48.1166 23.53 49.4234 25.5918 49.4234C27.568 49.4234 28.8143 48.7107 28.8143 45.9387V27.0868H34.8285V46.017C34.8285 51.7596 31.177 54.3736 25.8495 54.3736C21.0383 54.3736 18.2455 52.0765 16.8278 49.3042M38.0953 48.7105L42.9923 46.0968C44.2815 48.0375 45.957 49.4632 48.921 49.4632C51.4133 49.4632 53.0023 48.3146 53.0023 46.7303C53.0023 44.8294 51.3698 44.156 48.6203 43.0474L47.117 42.4528C42.7778 40.7503 39.8995 38.6116 39.8995 34.0967C39.8995 29.9381 43.3363 26.7697 48.7065 26.7697C52.53 26.7697 55.2795 27.9976 57.2555 31.2055L52.5725 33.978C51.5413 32.2751 50.4248 31.6019 48.7063 31.6019C46.9448 31.6019 45.8278 32.6316 45.8278 33.978C45.8278 35.6413 46.9448 36.315 49.5223 37.3447L51.0258 37.9386C56.1383 39.9587 59.0165 42.0179 59.0165 46.6513C59.0165 51.6418 54.7635 54.3743 49.0498 54.3743C43.465 54.3743 39.8563 51.9189 38.095 48.7107" fill="black"/>
</svg>
