<svg width="64" height="64" viewBox="0 0 64 64" fill="none" xmlns="http://www.w3.org/2000/svg">
<path d="M49.6349 0H14.3651C6.43147 0 0 6.43147 0 14.3651V49.6349C0 57.5685 6.43147 64 14.3651 64H49.6349C57.5685 64 64 57.5685 64 49.6349V14.3651C64 6.43147 57.5685 0 49.6349 0Z" fill="#0B86CA"/>
<path d="M17.7347 26.6019H24.3852V48.0609H17.7347V26.6019ZM21.1264 15.939C21.8884 15.939 22.6333 16.1647 23.2671 16.5875C23.9009 17.0104 24.3953 17.6115 24.6879 18.3151C24.9805 19.0186 25.0582 19.793 24.9111 20.5407C24.7641 21.2883 24.3989 21.9756 23.8617 22.5159C23.3245 23.0563 22.6392 23.4254 21.8924 23.5767C21.1457 23.728 20.3708 23.6548 19.6656 23.3663C18.9604 23.0777 18.3565 22.5868 17.93 21.9553C17.5035 21.3239 17.2735 20.5804 17.2691 19.8184C17.2662 19.31 17.3638 18.806 17.5564 18.3355C17.7489 17.8649 18.0326 17.4371 18.391 17.0766C18.7495 16.716 19.1757 16.4299 19.6452 16.2347C20.1146 16.0395 20.618 15.939 21.1264 15.939Z" fill="white"/>
<path d="M28.6415 26.6019H35.0481V29.5281C35.6895 28.4336 36.6159 27.5338 37.7286 26.9248C38.8414 26.3157 40.0986 26.0202 41.3661 26.0698C48.0166 26.0698 49.3689 30.5035 49.3689 36.2894V48.0608H42.7184V37.686C42.7184 35.2032 42.7184 31.9888 39.2601 31.9888C35.8019 31.9888 35.2698 34.6933 35.2698 37.4865V48.1051H28.6193L28.6415 26.6019Z" fill="white"/>
</svg>
