<svg width="64" height="64" viewBox="0 0 64 64" fill="none" xmlns="http://www.w3.org/2000/svg">
<path d="M58.474 48.9035C55.0425 48.81 52.422 49.1295 50.1815 50.074C49.545 50.3425 48.529 50.35 48.425 51.1475C48.775 51.514 48.8295 52.062 49.1075 52.513C49.6425 53.378 50.5455 54.539 51.3515 55.147C52.2325 55.812 53.14 56.5225 54.084 57.098C55.763 58.1215 57.6375 58.7065 59.254 59.732C60.207 60.337 61.1535 61.0985 62.083 61.7805C62.543 62.118 62.8515 62.6425 63.449 62.854V62.757C63.135 62.357 63.054 61.808 62.766 61.3905L61.4975 60.122C60.2575 58.476 58.683 57.03 57.0095 55.8295C55.675 54.8715 52.6885 53.5775 52.132 52.025L52.0345 51.9275C52.9805 51.8205 54.088 51.4785 54.9615 51.244C56.4285 50.851 57.7395 50.9525 59.254 50.5615L61.3025 49.976V49.586C60.537 48.8005 59.991 47.7605 59.1565 47.0495C56.9715 45.1895 54.5875 43.331 52.1325 41.781C50.7705 40.922 49.088 40.3635 47.6445 39.635C47.159 39.3895 46.306 39.262 45.9855 38.854C45.227 37.888 44.8145 36.663 44.23 35.5375C43.0055 33.179 41.803 30.6035 40.718 28.122C39.978 26.43 39.4945 24.762 38.5715 23.244C34.1415 15.9605 29.3735 11.565 21.987 7.24404C20.415 6.32504 18.5225 5.96254 16.5225 5.48755C15.45 5.42305 14.3765 5.35754 13.3035 5.29204C12.648 5.01904 11.967 4.21754 11.3525 3.82854C8.9055 2.28254 2.6285 -1.07996 0.816497 3.34104C-0.328003 6.13155 2.527 8.85354 3.5475 10.268C4.2645 11.259 5.182 12.3715 5.694 13.487C6.031 14.2205 6.089 14.956 6.3775 15.7315C7.086 17.6425 7.7035 19.7215 8.621 21.487C9.0845 22.381 9.5955 23.322 10.182 24.121C10.541 24.6115 11.1575 24.8275 11.2545 25.5845C10.6525 26.4275 10.618 27.7365 10.2795 28.8045C8.7545 33.612 9.33 39.588 11.548 43.146C12.228 44.239 13.8315 46.5815 16.0355 45.6825C17.9635 44.8975 17.533 42.4635 18.0845 40.3165C18.209 39.83 18.1325 39.472 18.377 39.146V39.2435L20.1335 42.7555C21.4335 44.849 23.7395 47.0365 25.6945 48.5125C26.708 49.278 27.506 50.601 28.8165 51.049V50.951H28.719C28.465 50.5555 28.0675 50.3915 27.7435 50.0735C26.98 49.325 26.131 48.3945 25.5 47.537C23.722 45.1235 22.151 42.482 20.7195 39.7325C20.0355 38.419 19.441 36.971 18.865 35.6345C18.643 35.1195 18.646 34.34 18.183 34.0735C17.5515 35.0525 16.622 35.8445 16.134 37.0005C15.3535 38.8485 15.253 41.1025 14.9635 43.4395C14.7925 43.5005 14.8685 43.4585 14.768 43.5365C13.409 43.209 12.932 41.8105 12.4265 40.61C11.1495 37.575 10.912 32.689 12.036 29.1955C12.327 28.291 13.641 25.445 13.109 24.6095C12.855 23.7765 12.017 23.2945 11.5485 22.658C10.968 21.871 10.389 20.835 9.9865 19.926C8.9415 17.5605 8.4535 14.904 7.353 12.512C6.8265 11.3685 5.937 10.211 5.2065 9.19504C4.398 8.06854 3.492 7.23905 2.865 5.87754C2.642 5.39354 2.3395 4.61854 2.6695 4.12104C2.7745 3.78554 2.9235 3.64554 3.255 3.53604C3.821 3.09954 5.397 3.68104 5.986 3.92554C7.5505 4.57554 8.8565 5.19454 10.182 6.07255C10.8175 6.49454 11.4615 7.31004 12.2305 7.53604H13.1085C14.482 7.85154 16.0205 7.63355 17.304 8.02355C19.572 8.71255 21.6045 9.78504 23.45 10.9505C29.073 14.5015 33.671 19.5555 36.816 25.585C37.322 26.556 37.541 27.482 37.9865 28.512C38.8855 30.5885 40.018 32.725 40.9125 34.756C41.8055 36.782 42.6755 38.8265 43.9375 40.5125C44.601 41.3985 47.163 41.874 48.328 42.3665C49.144 42.711 50.4815 43.071 51.255 43.5365C52.7315 44.4275 54.1625 45.488 55.548 46.464C56.2395 46.9515 58.368 48.022 58.474 48.9035ZM14.8645 11.733C14.149 11.7195 13.643 11.811 13.108 11.9275V12.025H13.2055C13.547 12.726 14.1495 13.178 14.571 13.7815C14.896 14.465 15.2215 15.1475 15.547 15.83L15.644 15.7335C16.2485 15.307 16.525 14.6265 16.5215 13.5865C16.2795 13.332 16.244 13.013 16.034 12.709C15.756 12.3035 15.2165 12.073 14.8645 11.733Z" fill="#00618A"/>
</svg>
