<svg width="64" height="48" viewBox="0 0 64 48" fill="none" xmlns="http://www.w3.org/2000/svg">
<g clip-path="url(#clip0_14_45)">
<path d="M55.075 27.575C52.8375 27.5876 50.9 28.125 49.275 28.9251C48.675 27.7376 48.075 26.7 47.9751 25.9251C47.8626 25.0251 47.7251 24.475 47.8626 23.4001C48 22.325 48.625 20.8 48.625 20.675C48.6124 20.5625 48.4874 20.0125 47.2 20C45.9126 19.9875 44.8 20.25 44.675 20.5875C44.55 20.925 44.3 21.7 44.1375 22.5C43.9125 23.675 41.5625 27.8375 40.225 30.025C39.7875 29.175 39.4125 28.425 39.3374 27.8248C39.225 26.925 39.0874 26.3748 39.225 25.3C39.3625 24.2248 39.9875 22.7 39.9875 22.575C39.975 22.4625 39.85 21.9125 38.5626 21.9C37.275 21.8875 36.1626 22.15 36.0376 22.4875C35.9126 22.825 35.7751 23.625 35.5001 24.4C35.2375 25.175 32.1125 32.125 31.3 33.9375C30.8875 34.8625 30.5251 35.6 30.2625 36.1C30 36.6 30.25 36.1375 30.225 36.1875C30 36.6125 29.875 36.85 29.875 36.85V36.8626C29.7 37.1751 29.5125 37.475 29.4249 37.475C29.3624 37.475 29.2374 36.6375 29.4499 35.4876C29.9124 33.075 31.0374 29.3126 31.025 29.1751C31.025 29.1126 31.2374 28.45 30.2999 28.1126C29.3874 27.7751 29.0625 28.3376 28.9874 28.3376C28.9124 28.3376 28.8499 28.5376 28.8499 28.5376C28.8499 28.5376 29.8624 24.3002 26.9124 24.3002C25.0624 24.3002 22.5124 26.3127 21.2499 28.1502C20.4499 28.5877 18.7499 29.5126 16.9499 30.5002C16.2624 30.8752 15.5499 31.2752 14.8749 31.6377L14.7375 31.4875C11.1625 27.675 4.54999 24.975 4.82499 19.85C4.92499 17.9875 5.57499 13.075 17.5251 7.12495C27.3126 2.24995 35.1501 3.58745 36.5125 6.56245C38.45 10.8125 32.325 18.7125 22.1501 19.85C18.2751 20.2875 16.2375 18.7875 15.7251 18.225C15.1876 17.6375 15.1126 17.6125 14.9126 17.725C14.5876 17.9 14.7876 18.425 14.9126 18.7375C15.2126 19.525 16.4626 20.925 18.5876 21.625C20.45 22.2375 25.0001 22.575 30.5001 20.45C36.6626 18.0625 41.4751 11.4375 40.0626 5.89995C38.6251 0.262454 29.2751 -1.58755 20.4376 1.54995C15.175 3.42495 9.47499 6.34995 5.37499 10.1875C0.499993 14.7375 -0.275007 18.7125 0.0499928 20.3625C1.18762 26.25 9.29999 30.0875 12.55 32.925C12.3875 33.0123 12.2375 33.0998 12.1 33.175C10.475 33.9748 4.28749 37.2125 2.73749 40.6373C0.987493 44.5123 3.01249 47.3 4.36249 47.675C8.53749 48.8375 12.8125 46.75 15.125 43.3125C17.4249 39.875 17.15 35.4125 16.0875 33.375L16.0499 33.3L17.3249 32.55C18.15 32.0625 18.9625 31.6125 19.6749 31.2248C19.275 32.3123 18.9874 33.5998 18.8375 35.4748C18.6625 37.675 19.5625 40.5248 20.75 41.6498C21.275 42.1372 21.9 42.1498 22.2875 42.1498C23.6625 42.1498 24.2875 41.0122 24.975 39.6498C25.825 37.9873 26.575 36.0623 26.575 36.0623C26.575 36.0623 25.6375 41.2748 28.2 41.2748C29.1375 41.2748 30.075 40.0623 30.5 39.4373V39.4498C30.5 39.4498 30.525 39.4123 30.575 39.3248C30.6274 39.2473 30.6775 39.1681 30.725 39.0875V39.0625C31.1 38.4125 31.9375 36.925 33.1875 34.4625C34.7999 31.2875 36.35 27.3125 36.35 27.3125C36.35 27.3125 36.5 28.2875 36.9625 29.8875C37.2374 30.8376 37.8374 31.875 38.2999 32.8875C37.9249 33.4125 37.6999 33.7126 37.6999 33.7126L37.7124 33.7251C37.4125 34.1251 37.0749 34.5502 36.725 34.9751C35.45 36.5001 33.925 38.2377 33.725 38.7377C33.4875 39.3251 33.5375 39.7626 34 40.1127C34.3375 40.3627 34.9375 40.4126 35.575 40.3627C36.725 40.2876 37.525 40.0002 37.925 39.8251C38.55 39.6001 39.2625 39.2626 39.95 38.7626C41.2 37.8377 41.9625 36.5252 41.8875 34.7752C41.85 33.8127 41.5375 32.8627 41.15 31.9627C41.2625 31.8002 41.3751 31.6376 41.4875 31.4627C43.4625 28.5751 44.9875 25.4002 44.9875 25.4002C44.9875 25.4002 45.1375 26.3752 45.6 27.9752C45.8374 28.7877 46.3125 29.6753 46.7375 30.5503C44.8875 32.0628 43.725 33.8128 43.325 34.9628C42.5875 37.0878 43.1625 38.0503 44.25 38.2753C44.7374 38.3753 45.4375 38.1503 45.9624 37.9253C46.6124 37.7128 47.3999 37.3502 48.125 36.8128C49.375 35.8878 50.575 34.6003 50.5125 32.8628C50.475 32.0628 50.2625 31.2753 49.975 30.5253C51.55 29.8753 53.5874 29.5003 56.175 29.8128C61.7375 30.4628 62.8375 33.9378 62.6251 35.3878C62.4126 36.838 61.2501 37.6378 60.8625 37.8878C60.475 38.1253 60.35 38.213 60.3875 38.3878C60.4375 38.6505 60.6125 38.6378 60.95 38.588C61.4125 38.5128 63.875 37.4005 63.975 34.7256C64.125 31.2876 60.8625 27.5376 55.075 27.575ZM12.175 42.0375C10.3375 44.05 7.74999 44.8125 6.64999 44.1625C5.46249 43.475 5.92487 40.5125 8.18749 38.375C9.56249 37.075 11.35 35.875 12.525 35.1375C12.7875 34.975 13.1875 34.7376 13.6625 34.45C13.7375 34.4001 13.7875 34.375 13.7875 34.375C13.875 34.325 13.975 34.2625 14.075 34.2C14.9125 37.25 14.1125 39.925 12.175 42.0375ZM25.6125 32.9C24.975 34.4625 23.625 38.475 22.8125 38.25C22.1124 38.0625 21.6875 35.025 22.6749 32.025C23.1749 30.5123 24.2374 28.7125 24.8624 28.0123C25.875 26.8873 26.9749 26.5123 27.25 26.9748C27.575 27.575 26.0125 31.925 25.6125 32.9ZM36.7 38.2C36.425 38.3376 36.175 38.4375 36.0625 38.3626C35.975 38.3126 36.1749 38.1251 36.1749 38.1251C36.1749 38.1251 37.5624 36.6376 38.1124 35.9501C38.4249 35.5502 38.7999 35.0877 39.1999 34.5626V34.7126C39.2 36.5125 37.475 37.7125 36.7 38.2ZM45.2499 36.25C45.0499 36.1 45.075 35.6375 45.7499 34.1875C46.0125 33.6125 46.6124 32.65 47.6499 31.7375C47.7749 32.1124 47.85 32.4748 47.8374 32.8125C47.825 35.0625 46.225 35.9 45.2499 36.25Z" fill="#CF649A"/>
</g>
<defs>
<clipPath id="clip0_14_45">
<rect width="64" height="48" fill="white"/>
</clipPath>
</defs>
</svg>
