<svg width="64" height="64" viewBox="0 0 64 64" fill="none" xmlns="http://www.w3.org/2000/svg">
<path d="M63.9813 0H0.01875C0.00839466 0 0 0.00839466 0 0.01875V63.9813C0 63.9916 0.00839466 64 0.01875 64H63.9813C63.9916 64 64 63.9916 64 63.9813V0.01875C64 0.00839466 63.9916 0 63.9813 0Z" fill="#45D354"/>
<path d="M38.5 34.1251C38.125 33.8751 37.75 33.7501 37.375 34.2501L35.875 36.2501C35.5 36.5001 35.25 36.6251 34.75 36.3751C32.875 35.3751 30.25 34.2501 28 30.5001C27.875 30.0001 28.125 29.7501 28.375 29.5001L29.5 27.7501C29.75 27.5001 29.625 27.2501 29.5 27.0001L28 23.3751C27.625 22.3751 27.25 22.5001 26.875 22.5001H25.875C25.625 22.5001 25.125 22.6251 24.625 23.1251C21.875 25.8751 23 29.7501 25 32.2501C25.375 32.7501 27.875 37.2501 33.25 39.6251C37.25 41.3751 38.125 41.1251 39.25 40.8751C40.625 40.7501 42 39.6251 42.625 38.5001C42.75 38.1251 43.375 36.5001 42.875 36.2501" fill="white"/>
<path d="M33 48C27.875 48 24 45.25 24 45.25L17.875 46.875L19.375 40.875C19.375 40.875 16.875 37 16.875 32.125C16.875 23.125 24.25 15.625 33.375 15.625C41.875 15.625 49.125 22.25 49.125 31.5C49.125 40.5 41.875 47.875 33 48ZM13.125 51.625L23.5 48.75C26.5048 50.2883 29.8537 51.0308 33.2271 50.9065C36.6004 50.7823 39.8856 49.7955 42.7691 48.0403C45.6526 46.2852 48.0381 43.8202 49.6979 40.8808C51.3576 37.9414 52.2363 34.6256 52.25 31.25C52.25 20.5 43.75 11.875 33 11.875C29.5496 11.8838 26.1618 12.7964 23.1739 14.5219C20.1859 16.2474 17.7022 18.7255 15.9699 21.7095C14.2377 24.6935 13.3174 28.0793 13.3008 31.5296C13.2841 34.9799 14.1716 38.3744 15.875 41.375" fill="white"/>
</svg>
